# xmcd
#
# Track frame offsets:
#	150
#	14035
#	26222
#	39042
#	54865
#	71345
#	84632
#	99225
#	113202
#	134782
#	149420
#	165575
#	180515
#	195535
#	214600
#	230320
#	254260
#	275957
#	291655
#
# Disc length: 4134 seconds
#
# Revision: 2
# Processed by: cddbd v1.5.2PL0 Copyright (c) Steve Scherf et al.
# Submitted via: audiograbber 1.83.01
#
DISCID=19102413
DTITLE=Lorrie Morgan - The Color Of Roses - Disc 1
DYEAR=2002
DGENRE=Country
TTITLE0=Trainwreck Of Emotion
TTITLE1=What Part Of No
TTITLE2=Except For Monday
TTITLE3=Good As I Was To You
TTITLE4=A Picture Of Me (Without You)
TTITLE5=Go Away
TTITLE6=I Didn't Know My Own Strength
TTITLE7=1-800-Used To Be
TTITLE8=Something In Red
TTITLE9=Will  You Still Love Me Tomorrow
TTITLE10=Half Enough
TTITLE11=Harper Valley PTA
TTITLE12=Watch Me
TTITLE13=The Color Of Roses
TTITLE14=Help Me Make It Through The Night
TTITLE15=Secret Love
TTITLE16=Good Morning Heartache
TTITLE17=Fly Me To The Moon
TTITLE18=My Favorite Things
EXTD=
EXTT0=
EXTT1=
EXTT2=
EXTT3=
EXTT4=
EXTT5=
EXTT6=
EXTT7=
EXTT8=
EXTT9=
EXTT10=
EXTT11=
EXTT12=
EXTT13=
EXTT14=
EXTT15=
EXTT16=
EXTT17=
EXTT18=
PLAYORDER=
